<svg width="100" height="80" viewBox="0 0 42 66" fill="none" xmlns="http://www.w3.org/2000/svg">
<path d="M27.5039 7.19727C26.5391 6.91992 25.8359 6.58008 25.3945 6.17773C24.957 5.77148 24.7383 5.27148 24.7383 4.67773C24.7383 4.00586 25.0059 3.45117 25.541 3.01367C26.0801 2.57227 26.7793 2.35156 27.6387 2.35156C28.2246 2.35156 28.7461 2.46484 29.2031 2.69141C29.6641 2.91797 30.0195 3.23047 30.2695 3.62891C30.5234 4.02734 30.6504 4.46289 30.6504 4.93555H29.5195C29.5195 4.41992 29.3555 4.01562 29.0273 3.72266C28.6992 3.42578 28.2363 3.27734 27.6387 3.27734C27.084 3.27734 26.6504 3.40039 26.3379 3.64648C26.0293 3.88867 25.875 4.22656 25.875 4.66016C25.875 5.00781 26.0215 5.30273 26.3145 5.54492C26.6113 5.7832 27.1133 6.00195 27.8203 6.20117C28.5312 6.40039 29.0859 6.62109 29.4844 6.86328C29.8867 7.10156 30.1836 7.38086 30.375 7.70117C30.5703 8.02148 30.668 8.39844 30.668 8.83203C30.668 9.52344 30.3984 10.0781 29.8594 10.4961C29.3203 10.9102 28.5996 11.1172 27.6973 11.1172C27.1113 11.1172 26.5645 11.0059 26.0566 10.7832C25.5488 10.5566 25.1562 10.248 24.8789 9.85742C24.6055 9.4668 24.4688 9.02344 24.4688 8.52734H25.5996C25.5996 9.04297 25.7891 9.45117 26.168 9.75195C26.5508 10.0488 27.0605 10.1973 27.6973 10.1973C28.291 10.1973 28.7461 10.0762 29.0625 9.83398C29.3789 9.5918 29.5371 9.26172 29.5371 8.84375C29.5371 8.42578 29.3906 8.10352 29.0977 7.87695C28.8047 7.64648 28.2734 7.41992 27.5039 7.19727Z" fill="black"/>
<path d="M15.5039 33.1973C14.5391 32.9199 13.8359 32.5801 13.3945 32.1777C12.957 31.7715 12.7383 31.2715 12.7383 30.6777C12.7383 30.0059 13.0059 29.4512 13.541 29.0137C14.0801 28.5723 14.7793 28.3516 15.6387 28.3516C16.2246 28.3516 16.7461 28.4648 17.2031 28.6914C17.6641 28.918 18.0195 29.2305 18.2695 29.6289C18.5234 30.0273 18.6504 30.4629 18.6504 30.9355H17.5195C17.5195 30.4199 17.3555 30.0156 17.0273 29.7227C16.6992 29.4258 16.2363 29.2773 15.6387 29.2773C15.084 29.2773 14.6504 29.4004 14.3379 29.6465C14.0293 29.8887 13.875 30.2266 13.875 30.6602C13.875 31.0078 14.0215 31.3027 14.3145 31.5449C14.6113 31.7832 15.1133 32.002 15.8203 32.2012C16.5312 32.4004 17.0859 32.6211 17.4844 32.8633C17.8867 33.1016 18.1836 33.3809 18.375 33.7012C18.5703 34.0215 18.668 34.3984 18.668 34.832C18.668 35.5234 18.3984 36.0781 17.8594 36.4961C17.3203 36.9102 16.5996 37.1172 15.6973 37.1172C15.1113 37.1172 14.5645 37.0059 14.0566 36.7832C13.5488 36.5566 13.1562 36.248 12.8789 35.8574C12.6055 35.4668 12.4688 35.0234 12.4688 34.5273H13.5996C13.5996 35.043 13.7891 35.4512 14.168 35.752C14.5508 36.0488 15.0605 36.1973 15.6973 36.1973C16.291 36.1973 16.7461 36.0762 17.0625 35.834C17.3789 35.5918 17.5371 35.2617 17.5371 34.8438C17.5371 34.4258 17.3906 34.1035 17.0977 33.877C16.8047 33.6465 16.2734 33.4199 15.5039 33.1973Z" fill="black"/>
<path d="M37.5039 33.1973C36.5391 32.9199 35.8359 32.5801 35.3945 32.1777C34.957 31.7715 34.7383 31.2715 34.7383 30.6777C34.7383 30.0059 35.0059 29.4512 35.541 29.0137C36.0801 28.5723 36.7793 28.3516 37.6387 28.3516C38.2246 28.3516 38.7461 28.4648 39.2031 28.6914C39.6641 28.918 40.0195 29.2305 40.2695 29.6289C40.5234 30.0273 40.6504 30.4629 40.6504 30.9355H39.5195C39.5195 30.4199 39.3555 30.0156 39.0273 29.7227C38.6992 29.4258 38.2363 29.2773 37.6387 29.2773C37.084 29.2773 36.6504 29.4004 36.3379 29.6465C36.0293 29.8887 35.875 30.2266 35.875 30.6602C35.875 31.0078 36.0215 31.3027 36.3145 31.5449C36.6113 31.7832 37.1133 32.002 37.8203 32.2012C38.5312 32.4004 39.0859 32.6211 39.4844 32.8633C39.8867 33.1016 40.1836 33.3809 40.375 33.7012C40.5703 34.0215 40.668 34.3984 40.668 34.832C40.668 35.5234 40.3984 36.0781 39.8594 36.4961C39.3203 36.9102 38.5996 37.1172 37.6973 37.1172C37.1113 37.1172 36.5645 37.0059 36.0566 36.7832C35.5488 36.5566 35.1562 36.248 34.8789 35.8574C34.6055 35.4668 34.4688 35.0234 34.4688 34.5273H35.5996C35.5996 35.043 35.7891 35.4512 36.168 35.752C36.5508 36.0488 37.0605 36.1973 37.6973 36.1973C38.291 36.1973 38.7461 36.0762 39.0625 35.834C39.3789 35.5918 39.5371 35.2617 39.5371 34.8438C39.5371 34.4258 39.3906 34.1035 39.0977 33.877C38.8047 33.6465 38.2734 33.4199 37.5039 33.1973Z" fill="black"/>
<line x1="27.5" y1="12" x2="27.5" y2="19" stroke="black"/>
<line x1="37.5" y1="38" x2="37.5" y2="45" stroke="black"/>
<path d="M35.8398 51.1152H39.5488V52H34.5156V51.2031L38.0137 46.5566H34.5684V45.6602H39.373V46.4277L35.8398 51.1152Z" fill="black"/>
<line x1="23.6077" y1="20.2258" x2="20.4461" y2="26.4711" stroke="black"/>
<line y1="-0.5" x2="7" y2="-0.5" transform="matrix(-0.451665 -0.892188 -0.892188 0.451665 34.1616 26.2454)" stroke="black"/>
<line x1="27.5" y1="21" x2="27.5" y2="28" stroke="black"/>
<path d="M26.4502 33.6802L25.123 33.2847L25.3252 32.6211L26.6523 33.1133L26.6128 31.6016H27.2852L27.2412 33.1353L28.5464 32.6519L28.7485 33.3198L27.3994 33.7197L28.2695 34.9106L27.7246 35.3237L26.9072 34.0581L26.1162 35.293L25.5669 34.8931L26.4502 33.6802Z" fill="black"/>
<path d="M3.50391 59.1973C2.53906 58.9199 1.83594 58.5801 1.39453 58.1777C0.957031 57.7715 0.738281 57.2715 0.738281 56.6777C0.738281 56.0059 1.00586 55.4512 1.54102 55.0137C2.08008 54.5723 2.7793 54.3516 3.63867 54.3516C4.22461 54.3516 4.74609 54.4648 5.20312 54.6914C5.66406 54.918 6.01953 55.2305 6.26953 55.6289C6.52344 56.0273 6.65039 56.4629 6.65039 56.9355H5.51953C5.51953 56.4199 5.35547 56.0156 5.02734 55.7227C4.69922 55.4258 4.23633 55.2773 3.63867 55.2773C3.08398 55.2773 2.65039 55.4004 2.33789 55.6465C2.0293 55.8887 1.875 56.2266 1.875 56.6602C1.875 57.0078 2.02148 57.3027 2.31445 57.5449C2.61133 57.7832 3.11328 58.002 3.82031 58.2012C4.53125 58.4004 5.08594 58.6211 5.48438 58.8633C5.88672 59.1016 6.18359 59.3809 6.375 59.7012C6.57031 60.0215 6.66797 60.3984 6.66797 60.832C6.66797 61.5234 6.39844 62.0781 5.85938 62.4961C5.32031 62.9102 4.59961 63.1172 3.69727 63.1172C3.11133 63.1172 2.56445 63.0059 2.05664 62.7832C1.54883 62.5566 1.15625 62.248 0.878906 61.8574C0.605469 61.4668 0.46875 61.0234 0.46875 60.5273H1.59961C1.59961 61.043 1.78906 61.4512 2.16797 61.752C2.55078 62.0488 3.06055 62.1973 3.69727 62.1973C4.29102 62.1973 4.74609 62.0762 5.0625 61.834C5.37891 61.5918 5.53711 61.2617 5.53711 60.8438C5.53711 60.4258 5.39062 60.1035 5.09766 59.877C4.80469 59.6465 4.27344 59.4199 3.50391 59.1973Z" fill="black"/>
<path d="M25.5039 59.1973C24.5391 58.9199 23.8359 58.5801 23.3945 58.1777C22.957 57.7715 22.7383 57.2715 22.7383 56.6777C22.7383 56.0059 23.0059 55.4512 23.541 55.0137C24.0801 54.5723 24.7793 54.3516 25.6387 54.3516C26.2246 54.3516 26.7461 54.4648 27.2031 54.6914C27.6641 54.918 28.0195 55.2305 28.2695 55.6289C28.5234 56.0273 28.6504 56.4629 28.6504 56.9355H27.5195C27.5195 56.4199 27.3555 56.0156 27.0273 55.7227C26.6992 55.4258 26.2363 55.2773 25.6387 55.2773C25.084 55.2773 24.6504 55.4004 24.3379 55.6465C24.0293 55.8887 23.875 56.2266 23.875 56.6602C23.875 57.0078 24.0215 57.3027 24.3145 57.5449C24.6113 57.7832 25.1133 58.002 25.8203 58.2012C26.5312 58.4004 27.0859 58.6211 27.4844 58.8633C27.8867 59.1016 28.1836 59.3809 28.375 59.7012C28.5703 60.0215 28.668 60.3984 28.668 60.832C28.668 61.5234 28.3984 62.0781 27.8594 62.4961C27.3203 62.9102 26.5996 63.1172 25.6973 63.1172C25.1113 63.1172 24.5645 63.0059 24.0566 62.7832C23.5488 62.5566 23.1562 62.248 22.8789 61.8574C22.6055 61.4668 22.4688 61.0234 22.4688 60.5273H23.5996C23.5996 61.043 23.7891 61.4512 24.168 61.752C24.5508 62.0488 25.0605 62.1973 25.6973 62.1973C26.291 62.1973 26.7461 62.0762 27.0625 61.834C27.3789 61.5918 27.5371 61.2617 27.5371 60.8438C27.5371 60.4258 27.3906 60.1035 27.0977 59.877C26.8047 59.6465 26.2734 59.4199 25.5039 59.1973Z" fill="black"/>
<line x1="15.5" y1="38" x2="15.5" y2="45" stroke="black"/>
<line x1="11.6077" y1="46.2258" x2="8.44606" y2="52.4711" stroke="black"/>
<line y1="-0.5" x2="7" y2="-0.5" transform="matrix(-0.451665 -0.892188 -0.892188 0.451665 22.1616 52.2454)" stroke="black"/>
<line x1="15.5" y1="47" x2="15.5" y2="54" stroke="black"/>
<path d="M14.4502 59.6802L13.123 59.2847L13.3252 58.6211L14.6523 59.1133L14.6128 57.6016H15.2852L15.2412 59.1353L16.5464 58.6519L16.7485 59.3198L15.3994 59.7197L16.2695 60.9106L15.7246 61.3237L14.9072 60.0581L14.1162 61.293L13.5669 60.8931L14.4502 59.6802Z" fill="black"/>
</svg>
