<svg width="160" height="160" viewBox="0 0 49 84" fill="none" xmlns="http://www.w3.org/2000/svg">
<path d="M3.50391 7.19727C2.53906 6.91992 1.83594 6.58008 1.39453 6.17773C0.957031 5.77148 0.738281 5.27148 0.738281 4.67773C0.738281 4.00586 1.00586 3.45117 1.54102 3.01367C2.08008 2.57227 2.7793 2.35156 3.63867 2.35156C4.22461 2.35156 4.74609 2.46484 5.20312 2.69141C5.66406 2.91797 6.01953 3.23047 6.26953 3.62891C6.52344 4.02734 6.65039 4.46289 6.65039 4.93555H5.51953C5.51953 4.41992 5.35547 4.01562 5.02734 3.72266C4.69922 3.42578 4.23633 3.27734 3.63867 3.27734C3.08398 3.27734 2.65039 3.40039 2.33789 3.64648C2.0293 3.88867 1.875 4.22656 1.875 4.66016C1.875 5.00781 2.02148 5.30273 2.31445 5.54492C2.61133 5.7832 3.11328 6.00195 3.82031 6.20117C4.53125 6.40039 5.08594 6.62109 5.48438 6.86328C5.88672 7.10156 6.18359 7.38086 6.375 7.70117C6.57031 8.02148 6.66797 8.39844 6.66797 8.83203C6.66797 9.52344 6.39844 10.0781 5.85938 10.4961C5.32031 10.9102 4.59961 11.1172 3.69727 11.1172C3.11133 11.1172 2.56445 11.0059 2.05664 10.7832C1.54883 10.5566 1.15625 10.248 0.878906 9.85742C0.605469 9.4668 0.46875 9.02344 0.46875 8.52734H1.59961C1.59961 9.04297 1.78906 9.45117 2.16797 9.75195C2.55078 10.0488 3.06055 10.1973 3.69727 10.1973C4.29102 10.1973 4.74609 10.0762 5.0625 9.83398C5.37891 9.5918 5.53711 9.26172 5.53711 8.84375C5.53711 8.42578 5.39062 8.10352 5.09766 7.87695C4.80469 7.64648 4.27344 7.41992 3.50391 7.19727ZM7.9043 7.53711C7.9043 6.6543 8.02148 5.80664 8.25586 4.99414C8.49414 4.18164 8.84766 3.44336 9.31641 2.7793C9.78516 2.11523 10.2715 1.64648 10.7754 1.37305L10.998 2.08789C10.4277 2.52539 9.95898 3.19336 9.5918 4.0918C9.22852 4.99023 9.0293 5.99609 8.99414 7.10938L8.98828 7.60742C8.98828 9.11523 9.26367 10.4238 9.81445 11.5332C10.1465 12.1973 10.541 12.7168 10.998 13.0918L10.7754 13.7539C10.2559 13.4648 9.75977 12.9805 9.28711 12.3008C8.36523 10.9727 7.9043 9.38477 7.9043 7.53711ZM15.498 11H14.4082V3.77539L12.2227 4.57812V3.59375L15.3281 2.42773H15.498V11ZM21.2871 7.5957C21.2871 8.4668 21.1719 9.30273 20.9414 10.1035C20.7148 10.9004 20.3652 11.6367 19.8926 12.3125C19.4238 12.9883 18.9316 13.4688 18.416 13.7539L18.1875 13.0918C18.7891 12.6309 19.2715 11.916 19.6348 10.9473C20.002 9.97461 20.1895 8.89648 20.1973 7.71289V7.52539C20.1973 6.70508 20.1113 5.94336 19.9395 5.24023C19.7676 4.5332 19.5273 3.90039 19.2188 3.3418C18.9141 2.7832 18.5703 2.34766 18.1875 2.03516L18.416 1.37305C18.9316 1.6582 19.4219 2.13477 19.8867 2.80273C20.3555 3.4707 20.7051 4.20703 20.9355 5.01172C21.1699 5.81641 21.2871 6.67773 21.2871 7.5957ZM30.8906 6.23047H26.0039V5.28711H30.8906V6.23047ZM30.8906 8.66211H26.0039V7.72461H30.8906V8.66211ZM38.9473 11H37.8574V3.77539L35.6719 4.57812V3.59375L38.7773 2.42773H38.9473V11ZM3.50391 21.1973C2.53906 20.9199 1.83594 20.5801 1.39453 20.1777C0.957031 19.7715 0.738281 19.2715 0.738281 18.6777C0.738281 18.0059 1.00586 17.4512 1.54102 17.0137C2.08008 16.5723 2.7793 16.3516 3.63867 16.3516C4.22461 16.3516 4.74609 16.4648 5.20312 16.6914C5.66406 16.918 6.01953 17.2305 6.26953 17.6289C6.52344 18.0273 6.65039 18.4629 6.65039 18.9355H5.51953C5.51953 18.4199 5.35547 18.0156 5.02734 17.7227C4.69922 17.4258 4.23633 17.2773 3.63867 17.2773C3.08398 17.2773 2.65039 17.4004 2.33789 17.6465C2.0293 17.8887 1.875 18.2266 1.875 18.6602C1.875 19.0078 2.02148 19.3027 2.31445 19.5449C2.61133 19.7832 3.11328 20.002 3.82031 20.2012C4.53125 20.4004 5.08594 20.6211 5.48438 20.8633C5.88672 21.1016 6.18359 21.3809 6.375 21.7012C6.57031 22.0215 6.66797 22.3984 6.66797 22.832C6.66797 23.5234 6.39844 24.0781 5.85938 24.4961C5.32031 24.9102 4.59961 25.1172 3.69727 25.1172C3.11133 25.1172 2.56445 25.0059 2.05664 24.7832C1.54883 24.5566 1.15625 24.248 0.878906 23.8574C0.605469 23.4668 0.46875 23.0234 0.46875 22.5273H1.59961C1.59961 23.043 1.78906 23.4512 2.16797 23.752C2.55078 24.0488 3.06055 24.1973 3.69727 24.1973C4.29102 24.1973 4.74609 24.0762 5.0625 23.834C5.37891 23.5918 5.53711 23.2617 5.53711 22.8438C5.53711 22.4258 5.39062 22.1035 5.09766 21.877C4.80469 21.6465 4.27344 21.4199 3.50391 21.1973ZM7.9043 21.5371C7.9043 20.6543 8.02148 19.8066 8.25586 18.9941C8.49414 18.1816 8.84766 17.4434 9.31641 16.7793C9.78516 16.1152 10.2715 15.6465 10.7754 15.373L10.998 16.0879C10.4277 16.5254 9.95898 17.1934 9.5918 18.0918C9.22852 18.9902 9.0293 19.9961 8.99414 21.1094L8.98828 21.6074C8.98828 23.1152 9.26367 24.4238 9.81445 25.5332C10.1465 26.1973 10.541 26.7168 10.998 27.0918L10.7754 27.7539C10.2559 27.4648 9.75977 26.9805 9.28711 26.3008C8.36523 24.9727 7.9043 23.3848 7.9043 21.5371ZM17.5254 25H11.9355V24.2207L14.8887 20.9395C15.3262 20.4434 15.627 20.041 15.791 19.7324C15.959 19.4199 16.043 19.0977 16.043 18.7656C16.043 18.3203 15.9082 17.9551 15.6387 17.6699C15.3691 17.3848 15.0098 17.2422 14.5605 17.2422C14.0215 17.2422 13.6016 17.3965 13.3008 17.7051C13.0039 18.0098 12.8555 18.4355 12.8555 18.9824H11.7715C11.7715 18.1973 12.0234 17.5625 12.5273 17.0781C13.0352 16.5938 13.7129 16.3516 14.5605 16.3516C15.3535 16.3516 15.9805 16.5605 16.4414 16.9785C16.9023 17.3926 17.1328 17.9453 17.1328 18.6367C17.1328 19.4766 16.5977 20.4766 15.5273 21.6367L13.2422 24.1152H17.5254V25ZM21.2871 21.5957C21.2871 22.4668 21.1719 23.3027 20.9414 24.1035C20.7148 24.9004 20.3652 25.6367 19.8926 26.3125C19.4238 26.9883 18.9316 27.4688 18.416 27.7539L18.1875 27.0918C18.7891 26.6309 19.2715 25.916 19.6348 24.9473C20.002 23.9746 20.1895 22.8965 20.1973 21.7129V21.5254C20.1973 20.7051 20.1113 19.9434 19.9395 19.2402C19.7676 18.5332 19.5273 17.9004 19.2188 17.3418C18.9141 16.7832 18.5703 16.3477 18.1875 16.0352L18.416 15.373C18.9316 15.6582 19.4219 16.1348 19.8867 16.8027C20.3555 17.4707 20.7051 18.207 20.9355 19.0117C21.1699 19.8164 21.2871 20.6777 21.2871 21.5957ZM30.8906 20.2305H26.0039V19.2871H30.8906V20.2305ZM30.8906 22.6621H26.0039V21.7246H30.8906V22.6621ZM39.9609 22.1348H41.1445V23.0195H39.9609V25H38.8711V23.0195H34.9863V22.3809L38.8066 16.4688H39.9609V22.1348ZM36.2168 22.1348H38.8711V17.9512L38.7422 18.1855L36.2168 22.1348ZM3.50391 35.1973C2.53906 34.9199 1.83594 34.5801 1.39453 34.1777C0.957031 33.7715 0.738281 33.2715 0.738281 32.6777C0.738281 32.0059 1.00586 31.4512 1.54102 31.0137C2.08008 30.5723 2.7793 30.3516 3.63867 30.3516C4.22461 30.3516 4.74609 30.4648 5.20312 30.6914C5.66406 30.918 6.01953 31.2305 6.26953 31.6289C6.52344 32.0273 6.65039 32.4629 6.65039 32.9355H5.51953C5.51953 32.4199 5.35547 32.0156 5.02734 31.7227C4.69922 31.4258 4.23633 31.2773 3.63867 31.2773C3.08398 31.2773 2.65039 31.4004 2.33789 31.6465C2.0293 31.8887 1.875 32.2266 1.875 32.6602C1.875 33.0078 2.02148 33.3027 2.31445 33.5449C2.61133 33.7832 3.11328 34.002 3.82031 34.2012C4.53125 34.4004 5.08594 34.6211 5.48438 34.8633C5.88672 35.1016 6.18359 35.3809 6.375 35.7012C6.57031 36.0215 6.66797 36.3984 6.66797 36.832C6.66797 37.5234 6.39844 38.0781 5.85938 38.4961C5.32031 38.9102 4.59961 39.1172 3.69727 39.1172C3.11133 39.1172 2.56445 39.0059 2.05664 38.7832C1.54883 38.5566 1.15625 38.248 0.878906 37.8574C0.605469 37.4668 0.46875 37.0234 0.46875 36.5273H1.59961C1.59961 37.043 1.78906 37.4512 2.16797 37.752C2.55078 38.0488 3.06055 38.1973 3.69727 38.1973C4.29102 38.1973 4.74609 38.0762 5.0625 37.834C5.37891 37.5918 5.53711 37.2617 5.53711 36.8438C5.53711 36.4258 5.39062 36.1035 5.09766 35.877C4.80469 35.6465 4.27344 35.4199 3.50391 35.1973ZM7.9043 35.5371C7.9043 34.6543 8.02148 33.8066 8.25586 32.9941C8.49414 32.1816 8.84766 31.4434 9.31641 30.7793C9.78516 30.1152 10.2715 29.6465 10.7754 29.373L10.998 30.0879C10.4277 30.5254 9.95898 31.1934 9.5918 32.0918C9.22852 32.9902 9.0293 33.9961 8.99414 35.1094L8.98828 35.6074C8.98828 37.1152 9.26367 38.4238 9.81445 39.5332C10.1465 40.1973 10.541 40.7168 10.998 41.0918L10.7754 41.7539C10.2559 41.4648 9.75977 40.9805 9.28711 40.3008C8.36523 38.9727 7.9043 37.3848 7.9043 35.5371ZM13.5117 34.207H14.3262C14.8379 34.1992 15.2402 34.0645 15.5332 33.8027C15.8262 33.541 15.9727 33.1875 15.9727 32.7422C15.9727 31.7422 15.4746 31.2422 14.4785 31.2422C14.0098 31.2422 13.6348 31.377 13.3535 31.6465C13.0762 31.9121 12.9375 32.2656 12.9375 32.707H11.8535C11.8535 32.0312 12.0996 31.4707 12.5918 31.0254C13.0879 30.5762 13.7168 30.3516 14.4785 30.3516C15.2832 30.3516 15.9141 30.5645 16.3711 30.9902C16.8281 31.416 17.0566 32.0078 17.0566 32.7656C17.0566 33.1367 16.9355 33.4961 16.6934 33.8438C16.4551 34.1914 16.1289 34.4512 15.7148 34.623C16.1836 34.7715 16.5449 35.0176 16.7988 35.3613C17.0566 35.7051 17.1855 36.125 17.1855 36.6211C17.1855 37.3867 16.9355 37.9941 16.4355 38.4434C15.9355 38.8926 15.2852 39.1172 14.4844 39.1172C13.6836 39.1172 13.0312 38.9004 12.5273 38.4668C12.0273 38.0332 11.7773 37.4609 11.7773 36.75H12.8672C12.8672 37.1992 13.0137 37.5586 13.3066 37.8281C13.5996 38.0977 13.9922 38.2324 14.4844 38.2324C15.0078 38.2324 15.4082 38.0957 15.6855 37.8223C15.9629 37.5488 16.1016 37.1562 16.1016 36.6445C16.1016 36.1484 15.9492 35.7676 15.6445 35.502C15.3398 35.2363 14.9004 35.0996 14.3262 35.0918H13.5117V34.207ZM21.2871 35.5957C21.2871 36.4668 21.1719 37.3027 20.9414 38.1035C20.7148 38.9004 20.3652 39.6367 19.8926 40.3125C19.4238 40.9883 18.9316 41.4688 18.416 41.7539L18.1875 41.0918C18.7891 40.6309 19.2715 39.916 19.6348 38.9473C20.002 37.9746 20.1895 36.8965 20.1973 35.7129V35.5254C20.1973 34.7051 20.1113 33.9434 19.9395 33.2402C19.7676 32.5332 19.5273 31.9004 19.2188 31.3418C18.9141 30.7832 18.5703 30.3477 18.1875 30.0352L18.416 29.373C18.9316 29.6582 19.4219 30.1348 19.8867 30.8027C20.3555 31.4707 20.7051 32.207 20.9355 33.0117C21.1699 33.8164 21.2871 34.6777 21.2871 35.5957ZM30.8906 34.2305H26.0039V33.2871H30.8906V34.2305ZM30.8906 36.6621H26.0039V35.7246H30.8906V36.6621ZM39.6387 30.4629V31.3828H39.4395C38.5957 31.3984 37.9238 31.6484 37.4238 32.1328C36.9238 32.6172 36.6348 33.2988 36.5566 34.1777C37.0059 33.6621 37.6191 33.4043 38.3965 33.4043C39.1387 33.4043 39.7305 33.666 40.1719 34.1895C40.6172 34.7129 40.8398 35.3887 40.8398 36.2168C40.8398 37.0957 40.5996 37.7988 40.1191 38.3262C39.6426 38.8535 39.002 39.1172 38.1973 39.1172C37.3809 39.1172 36.7188 38.8047 36.2109 38.1797C35.7031 37.5508 35.4492 36.7422 35.4492 35.7539V35.3379C35.4492 33.7676 35.7832 32.5684 36.4512 31.7402C37.123 30.9082 38.1211 30.4824 39.4453 30.4629H39.6387ZM38.2148 34.3066C37.8438 34.3066 37.502 34.418 37.1895 34.6406C36.877 34.8633 36.6602 35.1426 36.5391 35.4785V35.877C36.5391 36.5801 36.6973 37.1465 37.0137 37.5762C37.3301 38.0059 37.7246 38.2207 38.1973 38.2207C38.6855 38.2207 39.0684 38.041 39.3457 37.6816C39.627 37.3223 39.7676 36.8516 39.7676 36.2695C39.7676 35.6836 39.625 35.2109 39.3398 34.8516C39.0586 34.4883 38.6836 34.3066 38.2148 34.3066ZM3.50391 49.1973C2.53906 48.9199 1.83594 48.5801 1.39453 48.1777C0.957031 47.7715 0.738281 47.2715 0.738281 46.6777C0.738281 46.0059 1.00586 45.4512 1.54102 45.0137C2.08008 44.5723 2.7793 44.3516 3.63867 44.3516C4.22461 44.3516 4.74609 44.4648 5.20312 44.6914C5.66406 44.918 6.01953 45.2305 6.26953 45.6289C6.52344 46.0273 6.65039 46.4629 6.65039 46.9355H5.51953C5.51953 46.4199 5.35547 46.0156 5.02734 45.7227C4.69922 45.4258 4.23633 45.2773 3.63867 45.2773C3.08398 45.2773 2.65039 45.4004 2.33789 45.6465C2.0293 45.8887 1.875 46.2266 1.875 46.6602C1.875 47.0078 2.02148 47.3027 2.31445 47.5449C2.61133 47.7832 3.11328 48.002 3.82031 48.2012C4.53125 48.4004 5.08594 48.6211 5.48438 48.8633C5.88672 49.1016 6.18359 49.3809 6.375 49.7012C6.57031 50.0215 6.66797 50.3984 6.66797 50.832C6.66797 51.5234 6.39844 52.0781 5.85938 52.4961C5.32031 52.9102 4.59961 53.1172 3.69727 53.1172C3.11133 53.1172 2.56445 53.0059 2.05664 52.7832C1.54883 52.5566 1.15625 52.248 0.878906 51.8574C0.605469 51.4668 0.46875 51.0234 0.46875 50.5273H1.59961C1.59961 51.043 1.78906 51.4512 2.16797 51.752C2.55078 52.0488 3.06055 52.1973 3.69727 52.1973C4.29102 52.1973 4.74609 52.0762 5.0625 51.834C5.37891 51.5918 5.53711 51.2617 5.53711 50.8438C5.53711 50.4258 5.39062 50.1035 5.09766 49.877C4.80469 49.6465 4.27344 49.4199 3.50391 49.1973ZM7.9043 49.5371C7.9043 48.6543 8.02148 47.8066 8.25586 46.9941C8.49414 46.1816 8.84766 45.4434 9.31641 44.7793C9.78516 44.1152 10.2715 43.6465 10.7754 43.373L10.998 44.0879C10.4277 44.5254 9.95898 45.1934 9.5918 46.0918C9.22852 46.9902 9.0293 47.9961 8.99414 49.1094L8.98828 49.6074C8.98828 51.1152 9.26367 52.4238 9.81445 53.5332C10.1465 54.1973 10.541 54.7168 10.998 55.0918L10.7754 55.7539C10.2559 55.4648 9.75977 54.9805 9.28711 54.3008C8.36523 52.9727 7.9043 51.3848 7.9043 49.5371ZM16.5117 50.1348H17.6953V51.0195H16.5117V53H15.4219V51.0195H11.5371V50.3809L15.3574 44.4688H16.5117V50.1348ZM12.7676 50.1348H15.4219V45.9512L15.293 46.1855L12.7676 50.1348ZM21.2871 49.5957C21.2871 50.4668 21.1719 51.3027 20.9414 52.1035C20.7148 52.9004 20.3652 53.6367 19.8926 54.3125C19.4238 54.9883 18.9316 55.4688 18.416 55.7539L18.1875 55.0918C18.7891 54.6309 19.2715 53.916 19.6348 52.9473C20.002 51.9746 20.1895 50.8965 20.1973 49.7129V49.5254C20.1973 48.7051 20.1113 47.9434 19.9395 47.2402C19.7676 46.5332 19.5273 45.9004 19.2188 45.3418C18.9141 44.7832 18.5703 44.3477 18.1875 44.0352L18.416 43.373C18.9316 43.6582 19.4219 44.1348 19.8867 44.8027C20.3555 45.4707 20.7051 46.207 20.9355 47.0117C21.1699 47.8164 21.2871 48.6777 21.2871 49.5957ZM30.8906 48.2305H26.0039V47.2871H30.8906V48.2305ZM30.8906 50.6621H26.0039V49.7246H30.8906V50.6621ZM38.9473 53H37.8574V45.7754L35.6719 46.5781V45.5938L38.7773 44.4277H38.9473V53ZM43.6992 48.207H44.5137C45.0254 48.1992 45.4277 48.0645 45.7207 47.8027C46.0137 47.541 46.1602 47.1875 46.1602 46.7422C46.1602 45.7422 45.6621 45.2422 44.666 45.2422C44.1973 45.2422 43.8223 45.377 43.541 45.6465C43.2637 45.9121 43.125 46.2656 43.125 46.707H42.041C42.041 46.0312 42.2871 45.4707 42.7793 45.0254C43.2754 44.5762 43.9043 44.3516 44.666 44.3516C45.4707 44.3516 46.1016 44.5645 46.5586 44.9902C47.0156 45.416 47.2441 46.0078 47.2441 46.7656C47.2441 47.1367 47.123 47.4961 46.8809 47.8438C46.6426 48.1914 46.3164 48.4512 45.9023 48.623C46.3711 48.7715 46.7324 49.0176 46.9863 49.3613C47.2441 49.7051 47.373 50.125 47.373 50.6211C47.373 51.3867 47.123 51.9941 46.623 52.4434C46.123 52.8926 45.4727 53.1172 44.6719 53.1172C43.8711 53.1172 43.2188 52.9004 42.7148 52.4668C42.2148 52.0332 41.9648 51.4609 41.9648 50.75H43.0547C43.0547 51.1992 43.2012 51.5586 43.4941 51.8281C43.7871 52.0977 44.1797 52.2324 44.6719 52.2324C45.1953 52.2324 45.5957 52.0957 45.873 51.8223C46.1504 51.5488 46.2891 51.1562 46.2891 50.6445C46.2891 50.1484 46.1367 49.7676 45.832 49.502C45.5273 49.2363 45.0879 49.0996 44.5137 49.0918H43.6992V48.207ZM3.50391 63.1973C2.53906 62.9199 1.83594 62.5801 1.39453 62.1777C0.957031 61.7715 0.738281 61.2715 0.738281 60.6777C0.738281 60.0059 1.00586 59.4512 1.54102 59.0137C2.08008 58.5723 2.7793 58.3516 3.63867 58.3516C4.22461 58.3516 4.74609 58.4648 5.20312 58.6914C5.66406 58.918 6.01953 59.2305 6.26953 59.6289C6.52344 60.0273 6.65039 60.4629 6.65039 60.9355H5.51953C5.51953 60.4199 5.35547 60.0156 5.02734 59.7227C4.69922 59.4258 4.23633 59.2773 3.63867 59.2773C3.08398 59.2773 2.65039 59.4004 2.33789 59.6465C2.0293 59.8887 1.875 60.2266 1.875 60.6602C1.875 61.0078 2.02148 61.3027 2.31445 61.5449C2.61133 61.7832 3.11328 62.002 3.82031 62.2012C4.53125 62.4004 5.08594 62.6211 5.48438 62.8633C5.88672 63.1016 6.18359 63.3809 6.375 63.7012C6.57031 64.0215 6.66797 64.3984 6.66797 64.832C6.66797 65.5234 6.39844 66.0781 5.85938 66.4961C5.32031 66.9102 4.59961 67.1172 3.69727 67.1172C3.11133 67.1172 2.56445 67.0059 2.05664 66.7832C1.54883 66.5566 1.15625 66.248 0.878906 65.8574C0.605469 65.4668 0.46875 65.0234 0.46875 64.5273H1.59961C1.59961 65.043 1.78906 65.4512 2.16797 65.752C2.55078 66.0488 3.06055 66.1973 3.69727 66.1973C4.29102 66.1973 4.74609 66.0762 5.0625 65.834C5.37891 65.5918 5.53711 65.2617 5.53711 64.8438C5.53711 64.4258 5.39062 64.1035 5.09766 63.877C4.80469 63.6465 4.27344 63.4199 3.50391 63.1973ZM7.9043 63.5371C7.9043 62.6543 8.02148 61.8066 8.25586 60.9941C8.49414 60.1816 8.84766 59.4434 9.31641 58.7793C9.78516 58.1152 10.2715 57.6465 10.7754 57.373L10.998 58.0879C10.4277 58.5254 9.95898 59.1934 9.5918 60.0918C9.22852 60.9902 9.0293 61.9961 8.99414 63.1094L8.98828 63.6074C8.98828 65.1152 9.26367 66.4238 9.81445 67.5332C10.1465 68.1973 10.541 68.7168 10.998 69.0918L10.7754 69.7539C10.2559 69.4648 9.75977 68.9805 9.28711 68.3008C8.36523 66.9727 7.9043 65.3848 7.9043 63.5371ZM12.4336 62.7227L12.8672 58.4688H17.2383V59.4707H13.7871L13.5293 61.7969C13.9473 61.5508 14.4219 61.4277 14.9531 61.4277C15.7305 61.4277 16.3477 61.6855 16.8047 62.2012C17.2617 62.7129 17.4902 63.4062 17.4902 64.2812C17.4902 65.1602 17.252 65.8535 16.7754 66.3613C16.3027 66.8652 15.6406 67.1172 14.7891 67.1172C14.0352 67.1172 13.4199 66.9082 12.9434 66.4902C12.4668 66.0723 12.1953 65.4941 12.1289 64.7559H13.1543C13.2207 65.2441 13.3945 65.6133 13.6758 65.8633C13.957 66.1094 14.3281 66.2324 14.7891 66.2324C15.293 66.2324 15.6875 66.0605 15.9727 65.7168C16.2617 65.373 16.4062 64.8984 16.4062 64.293C16.4062 63.7227 16.25 63.2656 15.9375 62.9219C15.6289 62.5742 15.2168 62.4004 14.7012 62.4004C14.2285 62.4004 13.8574 62.5039 13.5879 62.7109L13.3008 62.9453L12.4336 62.7227ZM21.2871 63.5957C21.2871 64.4668 21.1719 65.3027 20.9414 66.1035C20.7148 66.9004 20.3652 67.6367 19.8926 68.3125C19.4238 68.9883 18.9316 69.4688 18.416 69.7539L18.1875 69.0918C18.7891 68.6309 19.2715 67.916 19.6348 66.9473C20.002 65.9746 20.1895 64.8965 20.1973 63.7129V63.5254C20.1973 62.7051 20.1113 61.9434 19.9395 61.2402C19.7676 60.5332 19.5273 59.9004 19.2188 59.3418C18.9141 58.7832 18.5703 58.3477 18.1875 58.0352L18.416 57.373C18.9316 57.6582 19.4219 58.1348 19.8867 58.8027C20.3555 59.4707 20.7051 60.207 20.9355 61.0117C21.1699 61.8164 21.2871 62.6777 21.2871 63.5957ZM27.2051 64.5977C27.2129 64.1328 27.2656 63.7656 27.3633 63.4961C27.4609 63.2266 27.6602 62.9277 27.9609 62.5996L28.7285 61.8086C29.0566 61.4375 29.2207 61.0391 29.2207 60.6133C29.2207 60.2031 29.1133 59.8828 28.8984 59.6523C28.6836 59.418 28.3711 59.3008 27.9609 59.3008C27.5625 59.3008 27.2422 59.4062 27 59.6172C26.7578 59.8281 26.6367 60.1113 26.6367 60.4668H25.5527C25.5605 59.834 25.7852 59.3242 26.2266 58.9375C26.6719 58.5469 27.25 58.3516 27.9609 58.3516C28.6992 58.3516 29.2734 58.5508 29.6836 58.9492C30.0977 59.3438 30.3047 59.8867 30.3047 60.5781C30.3047 61.2617 29.9883 61.9355 29.3555 62.5996L28.7168 63.2324C28.4316 63.5488 28.2891 64.0039 28.2891 64.5977H27.2051ZM27.1582 66.4551C27.1582 66.2793 27.2109 66.1328 27.3164 66.0156C27.4258 65.8945 27.5859 65.834 27.7969 65.834C28.0078 65.834 28.168 65.8945 28.2773 66.0156C28.3867 66.1328 28.4414 66.2793 28.4414 66.4551C28.4414 66.6309 28.3867 66.7773 28.2773 66.8945C28.168 67.0078 28.0078 67.0645 27.7969 67.0645C27.5859 67.0645 27.4258 67.0078 27.3164 66.8945C27.2109 66.7773 27.1582 66.6309 27.1582 66.4551ZM3.50391 77.1973C2.53906 76.9199 1.83594 76.5801 1.39453 76.1777C0.957031 75.7715 0.738281 75.2715 0.738281 74.6777C0.738281 74.0059 1.00586 73.4512 1.54102 73.0137C2.08008 72.5723 2.7793 72.3516 3.63867 72.3516C4.22461 72.3516 4.74609 72.4648 5.20312 72.6914C5.66406 72.918 6.01953 73.2305 6.26953 73.6289C6.52344 74.0273 6.65039 74.4629 6.65039 74.9355H5.51953C5.51953 74.4199 5.35547 74.0156 5.02734 73.7227C4.69922 73.4258 4.23633 73.2773 3.63867 73.2773C3.08398 73.2773 2.65039 73.4004 2.33789 73.6465C2.0293 73.8887 1.875 74.2266 1.875 74.6602C1.875 75.0078 2.02148 75.3027 2.31445 75.5449C2.61133 75.7832 3.11328 76.002 3.82031 76.2012C4.53125 76.4004 5.08594 76.6211 5.48438 76.8633C5.88672 77.1016 6.18359 77.3809 6.375 77.7012C6.57031 78.0215 6.66797 78.3984 6.66797 78.832C6.66797 79.5234 6.39844 80.0781 5.85938 80.4961C5.32031 80.9102 4.59961 81.1172 3.69727 81.1172C3.11133 81.1172 2.56445 81.0059 2.05664 80.7832C1.54883 80.5566 1.15625 80.248 0.878906 79.8574C0.605469 79.4668 0.46875 79.0234 0.46875 78.5273H1.59961C1.59961 79.043 1.78906 79.4512 2.16797 79.752C2.55078 80.0488 3.06055 80.1973 3.69727 80.1973C4.29102 80.1973 4.74609 80.0762 5.0625 79.834C5.37891 79.5918 5.53711 79.2617 5.53711 78.8438C5.53711 78.4258 5.39062 78.1035 5.09766 77.877C4.80469 77.6465 4.27344 77.4199 3.50391 77.1973ZM7.9043 77.5371C7.9043 76.6543 8.02148 75.8066 8.25586 74.9941C8.49414 74.1816 8.84766 73.4434 9.31641 72.7793C9.78516 72.1152 10.2715 71.6465 10.7754 71.373L10.998 72.0879C10.4277 72.5254 9.95898 73.1934 9.5918 74.0918C9.22852 74.9902 9.0293 75.9961 8.99414 77.1094L8.98828 77.6074C8.98828 79.1152 9.26367 80.4238 9.81445 81.5332C10.1465 82.1973 10.541 82.7168 10.998 83.0918L10.7754 83.7539C10.2559 83.4648 9.75977 82.9805 9.28711 82.3008C8.36523 80.9727 7.9043 79.3848 7.9043 77.5371ZM16.1895 72.4629V73.3828H15.9902C15.1465 73.3984 14.4746 73.6484 13.9746 74.1328C13.4746 74.6172 13.1855 75.2988 13.1074 76.1777C13.5566 75.6621 14.1699 75.4043 14.9473 75.4043C15.6895 75.4043 16.2812 75.666 16.7227 76.1895C17.168 76.7129 17.3906 77.3887 17.3906 78.2168C17.3906 79.0957 17.1504 79.7988 16.6699 80.3262C16.1934 80.8535 15.5527 81.1172 14.748 81.1172C13.9316 81.1172 13.2695 80.8047 12.7617 80.1797C12.2539 79.5508 12 78.7422 12 77.7539V77.3379C12 75.7676 12.334 74.5684 13.002 73.7402C13.6738 72.9082 14.6719 72.4824 15.9961 72.4629H16.1895ZM14.7656 76.3066C14.3945 76.3066 14.0527 76.418 13.7402 76.6406C13.4277 76.8633 13.2109 77.1426 13.0898 77.4785V77.877C13.0898 78.5801 13.248 79.1465 13.5645 79.5762C13.8809 80.0059 14.2754 80.2207 14.748 80.2207C15.2363 80.2207 15.6191 80.041 15.8965 79.6816C16.1777 79.3223 16.3184 78.8516 16.3184 78.2695C16.3184 77.6836 16.1758 77.2109 15.8906 76.8516C15.6094 76.4883 15.2344 76.3066 14.7656 76.3066ZM21.2871 77.5957C21.2871 78.4668 21.1719 79.3027 20.9414 80.1035C20.7148 80.9004 20.3652 81.6367 19.8926 82.3125C19.4238 82.9883 18.9316 83.4688 18.416 83.7539L18.1875 83.0918C18.7891 82.6309 19.2715 81.916 19.6348 80.9473C20.002 79.9746 20.1895 78.8965 20.1973 77.7129V77.5254C20.1973 76.7051 20.1113 75.9434 19.9395 75.2402C19.7676 74.5332 19.5273 73.9004 19.2188 73.3418C18.9141 72.7832 18.5703 72.3477 18.1875 72.0352L18.416 71.373C18.9316 71.6582 19.4219 72.1348 19.8867 72.8027C20.3555 73.4707 20.7051 74.207 20.9355 75.0117C21.1699 75.8164 21.2871 76.6777 21.2871 77.5957ZM27.2051 78.5977C27.2129 78.1328 27.2656 77.7656 27.3633 77.4961C27.4609 77.2266 27.6602 76.9277 27.9609 76.5996L28.7285 75.8086C29.0566 75.4375 29.2207 75.0391 29.2207 74.6133C29.2207 74.2031 29.1133 73.8828 28.8984 73.6523C28.6836 73.418 28.3711 73.3008 27.9609 73.3008C27.5625 73.3008 27.2422 73.4062 27 73.6172C26.7578 73.8281 26.6367 74.1113 26.6367 74.4668H25.5527C25.5605 73.834 25.7852 73.3242 26.2266 72.9375C26.6719 72.5469 27.25 72.3516 27.9609 72.3516C28.6992 72.3516 29.2734 72.5508 29.6836 72.9492C30.0977 73.3438 30.3047 73.8867 30.3047 74.5781C30.3047 75.2617 29.9883 75.9355 29.3555 76.5996L28.7168 77.2324C28.4316 77.5488 28.2891 78.0039 28.2891 78.5977H27.2051ZM27.1582 80.4551C27.1582 80.2793 27.2109 80.1328 27.3164 80.0156C27.4258 79.8945 27.5859 79.834 27.7969 79.834C28.0078 79.834 28.168 79.8945 28.2773 80.0156C28.3867 80.1328 28.4414 80.2793 28.4414 80.4551C28.4414 80.6309 28.3867 80.7773 28.2773 80.8945C28.168 81.0078 28.0078 81.0645 27.7969 81.0645C27.5859 81.0645 27.4258 81.0078 27.3164 80.8945C27.2109 80.7773 27.1582 80.6309 27.1582 80.4551Z" fill="black"/>
</svg>
