<svg width="200" height="200" viewBox="0 0 55 70" fill="none" xmlns="http://www.w3.org/2000/svg">
<rect x="6.25" y="60.25" width="6.5" height="8.5" fill="#C4C4C4" stroke="black" stroke-width="0.5"/>
<rect x="7.5" y="0.5" width="42" height="43" fill="#C4C4C4" stroke="black"/>
<rect x="16.5" y="9.5" width="24" height="13" fill="#7BAFD4" stroke="black"/>
<path d="M24.0586 16.3613C24.0586 17.6309 23.8418 18.5742 23.4082 19.1914C22.9746 19.8086 22.2969 20.1172 21.375 20.1172C20.4648 20.1172 19.791 19.8164 19.3535 19.2148C18.916 18.6094 18.6895 17.707 18.6738 16.5078V15.0605C18.6738 13.8066 18.8906 12.875 19.3242 12.2656C19.7578 11.6562 20.4375 11.3516 21.3633 11.3516C22.2812 11.3516 22.957 11.6465 23.3906 12.2363C23.8242 12.8223 24.0469 13.7285 24.0586 14.9551V16.3613ZM22.9746 14.8789C22.9746 13.9609 22.8457 13.293 22.5879 12.875C22.3301 12.4531 21.9219 12.2422 21.3633 12.2422C20.8086 12.2422 20.4043 12.4512 20.1504 12.8691C19.8965 13.2871 19.7656 13.9297 19.7578 14.7969V16.5312C19.7578 17.4531 19.8906 18.1348 20.1562 18.5762C20.4258 19.0137 20.832 19.2324 21.375 19.2324C21.9102 19.2324 22.3066 19.0254 22.5645 18.6113C22.8262 18.1973 22.9629 17.5449 22.9746 16.6543V14.8789ZM29.0098 20H27.9199V12.7754L25.7344 13.5781V12.5938L28.8398 11.4277H29.0098V20ZM35.748 20H34.6582V12.7754L32.4727 13.5781V12.5938L35.5781 11.4277H35.748V20Z" fill="black"/>
<rect x="26.5" y="43.5" width="3" height="15" fill="#C4C4C4" stroke="black"/>
<rect x="25.5" y="54.5" width="5" height="4" fill="#C4C4C4" stroke="black"/>
<rect x="24.25" y="60.25" width="6.5" height="8.5" fill="#C4C4C4" stroke="black" stroke-width="0.5"/>
<rect x="48.25" y="60.25" width="6.5" height="8.5" fill="#C4C4C4" stroke="black" stroke-width="0.5"/>
<rect x="30.25" y="60.25" width="6.5" height="8.5" fill="#C4C4C4" stroke="black" stroke-width="0.5"/>
<rect x="42.25" y="60.25" width="6.5" height="8.5" fill="#C4C4C4" stroke="black" stroke-width="0.5"/>
<rect x="36.25" y="60.25" width="6.5" height="8.5" fill="#C4C4C4" stroke="black" stroke-width="0.5"/>
<rect x="12.25" y="60.25" width="6.5" height="8.5" fill="#C4C4C4" stroke="black" stroke-width="0.5"/>
<rect x="0.25" y="60.25" width="6.5" height="8.5" fill="#C4C4C4" stroke="black" stroke-width="0.5"/>
<path d="M4.20361 68H3.38623V62.5815L1.74707 63.1836V62.4453L4.07617 61.5708H4.20361V68Z" fill="black"/>
<path d="M4.20361 68H3.38623V62.5815L1.74707 63.1836V62.4453L4.07617 61.5708H4.20361V68Z" fill="black"/>
<path d="M16.2036 68H15.3862V62.5815L13.7471 63.1836V62.4453L16.0762 61.5708H16.2036V68Z" fill="black"/>
<path d="M52.2036 68H51.3862V62.5815L49.7471 63.1836V62.4453L52.0762 61.5708H52.2036V68Z" fill="black"/>
<path d="M47.5439 65.271C47.5439 66.2231 47.3813 66.9307 47.0562 67.3936C46.731 67.8564 46.2227 68.0879 45.5312 68.0879C44.8486 68.0879 44.3433 67.8623 44.0151 67.4111C43.687 66.957 43.5171 66.2803 43.5054 65.3809V64.2954C43.5054 63.355 43.668 62.6562 43.9932 62.1992C44.3184 61.7422 44.8281 61.5137 45.5225 61.5137C46.2109 61.5137 46.7178 61.7349 47.043 62.1772C47.3682 62.6167 47.5352 63.2964 47.5439 64.2163V65.271ZM46.731 64.1592C46.731 63.4707 46.6343 62.9697 46.4409 62.6562C46.2476 62.3398 45.9414 62.1816 45.5225 62.1816C45.1064 62.1816 44.8032 62.3384 44.6128 62.6519C44.4224 62.9653 44.3242 63.4473 44.3184 64.0977V65.3984C44.3184 66.0898 44.418 66.6011 44.6172 66.9321C44.8193 67.2603 45.124 67.4243 45.5312 67.4243C45.9326 67.4243 46.23 67.269 46.4233 66.9585C46.6196 66.6479 46.7222 66.1587 46.731 65.4907V64.1592Z" fill="black"/>
<path d="M40.2036 68H39.3862V62.5815L37.7471 63.1836V62.4453L40.0762 61.5708H40.2036V68Z" fill="black"/>
<path d="M34.2036 68H33.3862V62.5815L31.7471 63.1836V62.4453L34.0762 61.5708H34.2036V68Z" fill="black"/>
<path d="M29.5439 65.271C29.5439 66.2231 29.3813 66.9307 29.0562 67.3936C28.731 67.8564 28.2227 68.0879 27.5312 68.0879C26.8486 68.0879 26.3433 67.8623 26.0151 67.4111C25.687 66.957 25.5171 66.2803 25.5054 65.3809V64.2954C25.5054 63.355 25.668 62.6562 25.9932 62.1992C26.3184 61.7422 26.8281 61.5137 27.5225 61.5137C28.2109 61.5137 28.7178 61.7349 29.043 62.1772C29.3682 62.6167 29.5352 63.2964 29.5439 64.2163V65.271ZM28.731 64.1592C28.731 63.4707 28.6343 62.9697 28.4409 62.6562C28.2476 62.3398 27.9414 62.1816 27.5225 62.1816C27.1064 62.1816 26.8032 62.3384 26.6128 62.6519C26.4224 62.9653 26.3242 63.4473 26.3184 64.0977V65.3984C26.3184 66.0898 26.418 66.6011 26.6172 66.9321C26.8193 67.2603 27.124 67.4243 27.5312 67.4243C27.9326 67.4243 28.23 67.269 28.4233 66.9585C28.6196 66.6479 28.7222 66.1587 28.731 65.4907V64.1592Z" fill="black"/>
<path d="M11.5439 65.271C11.5439 66.2231 11.3813 66.9307 11.0562 67.3936C10.731 67.8564 10.2227 68.0879 9.53125 68.0879C8.84863 68.0879 8.34326 67.8623 8.01514 67.4111C7.68701 66.957 7.51709 66.2803 7.50537 65.3809V64.2954C7.50537 63.355 7.66797 62.6562 7.99316 62.1992C8.31836 61.7422 8.82812 61.5137 9.52246 61.5137C10.2109 61.5137 10.7178 61.7349 11.043 62.1772C11.3682 62.6167 11.5352 63.2964 11.5439 64.2163V65.271ZM10.731 64.1592C10.731 63.4707 10.6343 62.9697 10.4409 62.6562C10.2476 62.3398 9.94141 62.1816 9.52246 62.1816C9.10645 62.1816 8.80322 62.3384 8.61279 62.6519C8.42236 62.9653 8.32422 63.4473 8.31836 64.0977V65.3984C8.31836 66.0898 8.41797 66.6011 8.61719 66.9321C8.81934 67.2603 9.12402 67.4243 9.53125 67.4243C9.93262 67.4243 10.23 67.269 10.4233 66.9585C10.6196 66.6479 10.7222 66.1587 10.731 65.4907V64.1592Z" fill="black"/>
<rect x="18.25" y="60.25" width="6.5" height="8.5" fill="#C4C4C4" stroke="black" stroke-width="0.5"/>
<path d="M23.5439 65.271C23.5439 66.2231 23.3813 66.9307 23.0562 67.3936C22.731 67.8564 22.2227 68.0879 21.5312 68.0879C20.8486 68.0879 20.3433 67.8623 20.0151 67.4111C19.687 66.957 19.5171 66.2803 19.5054 65.3809V64.2954C19.5054 63.355 19.668 62.6562 19.9932 62.1992C20.3184 61.7422 20.8281 61.5137 21.5225 61.5137C22.2109 61.5137 22.7178 61.7349 23.043 62.1772C23.3682 62.6167 23.5352 63.2964 23.5439 64.2163V65.271ZM22.731 64.1592C22.731 63.4707 22.6343 62.9697 22.4409 62.6562C22.2476 62.3398 21.9414 62.1816 21.5225 62.1816C21.1064 62.1816 20.8032 62.3384 20.6128 62.6519C20.4224 62.9653 20.3242 63.4473 20.3184 64.0977V65.3984C20.3184 66.0898 20.418 66.6011 20.6172 66.9321C20.8193 67.2603 21.124 67.4243 21.5312 67.4243C21.9326 67.4243 22.23 67.269 22.4233 66.9585C22.6196 66.6479 22.7222 66.1587 22.731 65.4907V64.1592Z" fill="black"/>
</svg>
